<mxfile host="app.diagrams.net" modified="2022-11-25T00:54:52.134Z" agent="5.0 (Macintosh; Intel Mac OS X 10_15_7) AppleWebKit/537.36 (KHTML, like Gecko) Chrome/107.0.0.0 Safari/537.36" etag="e9aYP4D7T6OR-sRl6C8O" version="20.5.1" type="github">
  <diagram id="sfPJcYWXnRS4U3Ost-8E" name="Page-1">
    <mxGraphModel dx="1186" dy="714" grid="1" gridSize="10" guides="1" tooltips="1" connect="1" arrows="1" fold="1" page="1" pageScale="1" pageWidth="850" pageHeight="1100" math="0" shadow="0">
      <root>
        <mxCell id="0" />
        <mxCell id="1" parent="0" />
        <mxCell id="FafQLGMly_LdXWSMw27d-11" value="T" style="text;html=1;align=center;verticalAlign=middle;resizable=0;points=[];autosize=1;strokeColor=none;fillColor=none;fontSize=80;fontColor=#99004D;fontFamily=Comic Sans MS;fontStyle=1" vertex="1" parent="1">
          <mxGeometry x="235" y="40" width="80" height="110" as="geometry" />
        </mxCell>
        <mxCell id="FafQLGMly_LdXWSMw27d-12" value="C" style="text;html=1;align=center;verticalAlign=middle;resizable=0;points=[];autosize=1;strokeColor=none;fillColor=none;fontSize=80;fontColor=#006600;fontFamily=Comic Sans MS;fontStyle=1" vertex="1" parent="1">
          <mxGeometry x="297" y="40" width="70" height="110" as="geometry" />
        </mxCell>
        <mxCell id="FafQLGMly_LdXWSMw27d-13" value="P" style="text;html=1;align=center;verticalAlign=middle;resizable=0;points=[];autosize=1;strokeColor=none;fillColor=none;fontSize=80;fontColor=#990000;fontFamily=Comic Sans MS;fontStyle=1" vertex="1" parent="1">
          <mxGeometry x="355" y="40" width="70" height="110" as="geometry" />
        </mxCell>
        <mxCell id="FafQLGMly_LdXWSMw27d-15" value="" style="shape=image;html=1;verticalAlign=top;verticalLabelPosition=bottom;labelBackgroundColor=#ffffff;imageAspect=0;aspect=fixed;image=https://cdn3.iconfinder.com/data/icons/clinical-3/96/blood-test-128.png;strokeColor=#990000;fontFamily=Comic Sans MS;fontSize=60;fontColor=#99004D;fillColor=#990000;" vertex="1" parent="1">
          <mxGeometry x="170" y="60" width="80" height="80" as="geometry" />
        </mxCell>
        <mxCell id="FafQLGMly_LdXWSMw27d-19" style="edgeStyle=orthogonalEdgeStyle;rounded=0;orthogonalLoop=1;jettySize=auto;html=1;exitX=0.5;exitY=1;exitDx=0;exitDy=0;fontFamily=Comic Sans MS;fontSize=15;fontColor=#FFFFFF;" edge="1" parent="1" source="FafQLGMly_LdXWSMw27d-15" target="FafQLGMly_LdXWSMw27d-15">
          <mxGeometry relative="1" as="geometry" />
        </mxCell>
      </root>
    </mxGraphModel>
  </diagram>
</mxfile>
